<svg width="106" height="38" viewBox="0 0 106 38" fill="none" xmlns="http://www.w3.org/2000/svg">
<rect width="106" height="38" fill="white"/>
<path d="M11.8601 28.8648C11.7531 29.8066 11.5631 30.6755 11.2831 31.4713C11.0103 32.2665 10.6037 32.9581 10.0704 33.5512C9.53713 34.1444 8.86289 34.6293 8.05484 35.0041C7.23961 35.3802 6.2599 35.6207 5.10983 35.7321C4.50151 35.7908 3.91473 35.8071 3.35602 35.7797C2.79143 35.7589 2.32801 35.693 1.95401 35.5953C1.57935 35.4916 1.33851 35.3873 1.22428 35.2817C1.10941 35.1703 1.04218 35.008 1.01476 34.7955C1.00367 34.7095 0.998446 34.5641 1.0004 34.3718C1.00236 34.1795 1.01411 33.9573 1.03043 33.7168C1.05327 33.4756 1.08852 33.2279 1.12181 32.9685C1.16227 32.7084 1.21841 32.4699 1.27715 32.2489C1.34307 32.0332 1.42075 31.8565 1.50429 31.7203C1.59306 31.5776 1.69097 31.5046 1.79018 31.4948C1.96184 31.4778 2.11196 31.4987 2.25229 31.5489C2.39328 31.6049 2.55515 31.6649 2.7379 31.7347C2.92719 31.8037 3.14193 31.8585 3.3893 31.91C3.64321 31.9608 3.95194 31.966 4.32855 31.9295C4.71886 31.8917 5.05631 31.8122 5.34155 31.6858C5.63396 31.5645 5.87154 31.384 6.05691 31.1565C6.24228 30.929 6.39305 30.6461 6.50989 30.3033C6.62672 29.9598 6.70048 29.5453 6.74486 29.0518L8.29765 13.569C8.31005 13.4569 8.35704 13.3539 8.44516 13.2574C8.52675 13.1623 8.67622 13.0776 8.88051 13C9.08546 12.9276 9.35699 12.8546 9.69052 12.7934C10.0175 12.7328 10.4326 12.6806 10.9215 12.6337C11.3973 12.5874 11.7955 12.5607 12.116 12.5529C12.4364 12.545 12.6923 12.5613 12.8907 12.5939C13.0833 12.6337 13.2243 12.6897 13.3013 12.7699C13.3848 12.8494 13.4246 12.9498 13.4135 13.0736L11.8601 28.8654V28.8648ZM33.4529 11.2075C33.462 11.2766 33.4699 11.392 33.4718 11.5667C33.4731 11.7355 33.4646 11.9284 33.4516 12.1396C33.4451 12.3502 33.4203 12.5737 33.3824 12.8045C33.3459 13.0411 33.2923 13.2496 33.2173 13.4491C33.1481 13.642 33.0489 13.8089 32.9333 13.9484C32.81 14.0826 32.6729 14.1602 32.5208 14.1745L23.5703 15.0414L23.0272 20.4748L30.6228 19.7389C30.801 19.7213 30.9406 19.7663 31.0274 19.8686C31.1214 19.9762 31.1808 20.1274 31.2069 20.3288C31.2174 20.4096 31.2259 20.5309 31.2272 20.6938C31.2278 20.8568 31.2193 21.0497 31.2063 21.2609C31.1998 21.4714 31.1737 21.6833 31.1345 21.9023C31.0953 22.1213 31.0412 22.3246 30.9654 22.5182C30.8956 22.7053 30.7951 22.8611 30.6841 22.9882C30.566 23.11 30.4341 23.1811 30.2755 23.1967L22.6865 23.932L22.058 30.212L31.1273 29.3334C31.2794 29.3184 31.4054 29.3647 31.4941 29.4781C31.5881 29.5857 31.6501 29.7545 31.6795 29.9846C31.6893 30.0595 31.6984 30.1866 31.7069 30.3548C31.7161 30.5288 31.7134 30.7211 31.6939 30.9323C31.6743 31.1441 31.6482 31.3618 31.6097 31.5808C31.5705 31.7998 31.517 32.0091 31.4491 32.2079C31.3734 32.4014 31.28 32.5618 31.1691 32.6889C31.0509 32.8108 30.9126 32.8825 30.7474 32.8988L18.1476 34.1196C17.9427 34.1391 17.7482 34.1352 17.5765 34.0994C17.3983 34.0642 17.2482 33.9912 17.1274 33.8869C16.9995 33.7767 16.9088 33.6405 16.8468 33.4717C16.7841 33.297 16.7645 33.0897 16.7854 32.8368L18.7155 13.3982C18.771 12.8918 18.957 12.5131 19.2859 12.2602C19.6084 12.008 19.9909 11.86 20.4203 11.8183L32.8681 10.6125C33.2049 10.5799 33.3974 10.7767 33.4529 11.2082V11.2075ZM54.7533 9.20847C54.7637 9.2893 54.7663 9.41705 54.7689 9.59108C54.7709 9.76576 54.7631 9.96456 54.7507 10.181C54.7317 10.398 54.7011 10.6281 54.6573 10.8654C54.6208 11.102 54.562 11.3229 54.487 11.5224C54.4184 11.7212 54.3199 11.888 54.2037 12.0275C54.0803 12.1618 53.9433 12.2393 53.7912 12.2537L47.5115 12.8618L45.7094 30.8378C45.6839 30.9512 45.6311 31.0607 45.5371 31.163C45.449 31.2588 45.3001 31.3488 45.0959 31.427C44.8844 31.5 44.6194 31.5723 44.2996 31.6382C43.9732 31.7047 43.5594 31.762 43.0568 31.8109C42.5679 31.8585 42.1554 31.8807 41.8271 31.8774C41.4988 31.8741 41.2482 31.852 41.0634 31.8174C40.8839 31.7764 40.7554 31.7131 40.6849 31.633C40.6203 31.5463 40.587 31.4446 40.5994 31.3325L42.395 13.3572L36.1544 13.9614C35.9626 13.9796 35.8222 13.9295 35.7341 13.816C35.6453 13.6968 35.5905 13.5332 35.5637 13.32C35.552 13.2281 35.5416 13.0952 35.5396 12.9205C35.5376 12.7458 35.5455 12.547 35.5631 12.3182C35.5814 12.0953 35.6055 11.8659 35.6486 11.6286C35.6917 11.3913 35.7511 11.1763 35.8255 10.9709C35.9071 10.7708 35.9998 10.6046 36.1172 10.4769C36.2275 10.3439 36.3653 10.2722 36.5173 10.2579L54.1737 8.54755C54.3323 8.53191 54.4596 8.58405 54.5607 8.69616C54.656 8.81479 54.7246 8.98296 54.7533 9.20718V9.20847Z" fill="white"/>
<path d="M73.4469 7.77455C73.4586 7.86646 73.4619 7.99421 73.4639 8.1689C73.4652 8.33771 73.4626 8.52412 73.4495 8.7353C73.4358 8.94062 73.409 9.15246 73.3764 9.3656C73.3431 9.57874 73.2948 9.77558 73.2321 9.962C73.1682 10.1432 73.0872 10.2964 72.9965 10.4215C72.9045 10.5408 72.7994 10.6092 72.6806 10.621C72.5024 10.6386 72.2688 10.591 71.979 10.4737C71.6898 10.3563 71.3334 10.239 70.9222 10.11C70.5045 9.98155 70.0222 9.87661 69.4752 9.78406C68.9282 9.6915 68.3245 9.68041 67.6502 9.74559C66.9564 9.81273 66.3787 9.95613 65.9179 10.1699C65.4565 10.3837 65.089 10.6464 64.8136 10.9521C64.5446 11.2578 64.3528 11.585 64.2509 11.9441C64.1426 12.298 64.1145 12.6559 64.1589 13.0013C64.2105 13.4041 64.3749 13.7489 64.6458 14.037C64.9167 14.3251 65.2639 14.5767 65.6875 14.8036C66.1111 15.0304 66.5876 15.2461 67.115 15.4456C67.6424 15.645 68.1841 15.8484 68.7272 16.0693C69.2709 16.2903 69.8172 16.5347 70.3544 16.8085C70.8916 17.0822 71.3811 17.4075 71.8249 17.7901C72.2694 18.1779 72.6415 18.6251 72.9424 19.1491C73.2439 19.6731 73.443 20.2885 73.533 20.9963C73.6675 22.049 73.5487 23.056 73.1688 24.007C72.7955 24.9573 72.2015 25.8066 71.3883 26.5672C70.5678 27.322 69.5509 27.9503 68.3238 28.4535C67.0974 28.9626 65.7071 29.2891 64.1537 29.4397C63.3143 29.5212 62.5402 29.5375 61.8105 29.486C61.0886 29.4397 60.4411 29.3511 59.8713 29.237C59.308 29.1229 58.8224 28.9893 58.4281 28.8355C58.028 28.6882 57.7271 28.5363 57.5274 28.387C57.327 28.2319 57.2017 27.9875 57.1586 27.6486C57.1475 27.5625 57.143 27.423 57.1469 27.2418C57.1495 27.0554 57.158 26.8566 57.1776 26.6448C57.1971 26.433 57.2233 26.2153 57.2539 25.9852C57.2918 25.7603 57.3453 25.5511 57.4086 25.3647C57.4785 25.1776 57.5581 25.0185 57.6495 24.8928C57.748 24.7728 57.8531 24.7044 57.985 24.6913C58.203 24.6705 58.4719 24.7318 58.7989 24.8804C59.1252 25.0238 59.526 25.1769 60.009 25.3399C60.4855 25.5094 61.0461 25.6528 61.6904 25.7707C62.3346 25.8887 63.0865 25.9089 63.9526 25.8255C64.713 25.7518 65.3762 25.6 65.9297 25.3777C66.4832 25.1554 66.9368 24.8784 67.2899 24.5532C67.6424 24.2221 67.8904 23.8603 68.0399 23.4555C68.1952 23.0501 68.2409 22.6206 68.1822 22.1604C68.1293 21.7465 67.9629 21.39 67.692 21.1012C67.4205 20.8073 67.0791 20.5492 66.662 20.3217C66.2515 20.0936 65.7828 19.883 65.2698 19.694C64.7568 19.505 64.2294 19.3055 63.6929 19.0839C63.1557 18.8623 62.6224 18.6172 62.0996 18.3474C61.5775 18.0834 61.0938 17.7575 60.6637 17.3743C60.2257 16.9858 59.8602 16.5321 59.558 16.0022C59.2564 15.4782 59.0554 14.8453 58.9621 14.1153C58.8335 13.1089 58.9451 12.1546 59.2982 11.2526C59.652 10.3563 60.2061 9.56309 60.9476 8.86827C61.6956 8.17867 62.6198 7.60574 63.7262 7.14948C64.8266 6.69909 66.0668 6.40448 67.442 6.27151C68.0901 6.20894 68.7161 6.18873 69.3094 6.21871C69.9021 6.24869 70.451 6.30019 70.9503 6.38557C71.4424 6.46575 71.8706 6.57003 72.2283 6.69843C72.5853 6.82097 72.8333 6.93113 72.9796 7.0276C73.1251 7.1182 73.2322 7.22443 73.3066 7.33394C73.3816 7.44865 73.4273 7.59596 73.4502 7.77455H73.4469ZM96.8294 4.4204C96.8549 4.6218 96.7968 4.84277 96.6604 5.08915C96.5174 5.33031 96.2831 5.64383 95.9594 6.04208L88.1217 15.0819L94.6481 24.2964C94.7825 24.5102 94.8798 24.6933 94.9535 24.8549C95.0273 25.0107 95.0723 25.158 95.0893 25.2904C95.1102 25.4514 95.0873 25.5876 95.0142 25.6997C94.9424 25.817 94.808 25.9174 94.6115 26.0067C94.4157 26.0953 94.1435 26.1683 93.7976 26.2368C93.4517 26.3052 93.0046 26.3658 92.4687 26.418C91.9198 26.4714 91.4759 26.5027 91.1345 26.5066C90.7938 26.5105 90.5236 26.4903 90.3187 26.4577C90.1196 26.4186 89.9636 26.3521 89.8585 26.2635C89.7593 26.1683 89.6718 26.0601 89.6013 25.9272L82.977 16.1045L81.9595 26.7197C81.9549 26.8423 81.902 26.9524 81.8074 27.0489C81.7193 27.1447 81.5692 27.2295 81.3662 27.3129C81.1625 27.397 80.8975 27.4687 80.5705 27.5299C80.25 27.5899 79.8421 27.6414 79.3526 27.689C78.85 27.7379 78.4323 27.7665 78.1111 27.7685C77.79 27.7704 77.5328 27.7489 77.3462 27.7027C77.153 27.657 77.025 27.5997 76.948 27.5202C76.871 27.44 76.8442 27.3383 76.8684 27.2132L78.9499 6.13529C78.9479 6.0134 78.9936 5.9039 79.0889 5.80743C79.177 5.71161 79.3271 5.62688 79.5373 5.54867C79.7422 5.47632 80.0138 5.40331 80.3408 5.3427C80.6678 5.28208 81.0894 5.22928 81.5913 5.18105C82.0802 5.13347 82.4856 5.10609 82.7995 5.10479C83.1141 5.10348 83.3706 5.12499 83.556 5.15954C83.742 5.19995 83.8699 5.25731 83.947 5.33683C84.024 5.417 84.0573 5.51803 84.0462 5.64187L83.1108 15.1718L91.2142 5.01745C91.3297 4.8721 91.4531 4.73782 91.5849 4.6205C91.7246 4.50774 91.906 4.40866 92.1365 4.32849C92.361 4.25419 92.6397 4.18054 92.9797 4.11862C93.3133 4.05735 93.7349 4.00455 94.2375 3.95632C94.7466 3.90678 95.1643 3.8781 95.4985 3.87484C95.8262 3.87224 96.0834 3.89375 96.2766 3.93937C96.4626 3.97978 96.5977 4.04236 96.6812 4.12123C96.7583 4.2014 96.8111 4.30047 96.8268 4.4217L96.8294 4.4204ZM103.672 24.6333C103.66 24.7454 103.614 24.8543 103.52 24.9566C103.425 25.0531 103.276 25.143 103.072 25.2213C102.867 25.2936 102.595 25.3666 102.262 25.4279C101.928 25.4892 101.52 25.5406 101.024 25.5882C100.522 25.6371 100.117 25.6645 99.796 25.6664C99.4748 25.6684 99.2248 25.6462 99.0329 25.6123C98.8469 25.5719 98.7183 25.5087 98.6413 25.4292C98.5636 25.3438 98.5369 25.2415 98.5623 25.128L100.681 4.02932C100.68 3.91851 100.727 3.80967 100.827 3.70668C100.922 3.61022 101.071 3.52026 101.275 3.44205C101.48 3.3697 101.745 3.29735 102.072 3.23673C102.392 3.17676 102.8 3.12528 103.283 3.07835C103.779 3.03011 104.191 3.00208 104.512 3.00013C104.833 2.99817 105.097 3.01903 105.288 3.05293C105.488 3.09203 105.623 3.1546 105.687 3.23542C105.758 3.32146 105.791 3.42315 105.779 3.53526L103.673 24.6327L103.672 24.6333Z" fill="#1BA8E2"/>
</svg>
